<?xml version="1.0" encoding="UTF-8"?>
<svg id="Layer_2" data-name="Layer 2" xmlns="http://www.w3.org/2000/svg" viewBox="0 0 604.98 466.47">
  <defs>
    <style>
      .cls-1 {
        fill: #16214c;
        stroke-width: 0px;
      }
    </style>
  </defs>
  <g id="Layer_1-2" data-name="Layer 1">
    <g>
      <g>
        <path class="cls-1" d="M21.13,251.11v39.54H0v-102.4h21.13v12.13c6.14-8.32,17.32-15,32.72-15,23.86,0,40.5,15.82,40.5,40.36s-16.63,40.36-40.5,40.36c-15.41,0-26.59-6.68-32.72-15ZM22.42,215.25c-1.68,4.97-1.68,16.02,0,21,3.45,10.23,15.07,12.27,26.12,12.27,16.36,0,25.63-8.04,25.63-22.77s-9.27-22.77-25.63-22.77c-11.04,0-22.66,2.04-26.12,12.27Z"/>
        <path class="cls-1" d="M193.75,221.39v27.68c0,5.45.95,9.95,3.41,14.32h-21.68c-1.64-2.73-2.73-6.14-2.73-8.86v-.14c-5.73,6.27-16.77,11.73-31.22,11.73-16.09,0-36.95-6.41-36.95-25.91s20.86-25.77,36.95-25.77c14.45,0,25.5,5.32,31.22,11.73v-4.91c0-13.91-9.14-19.91-27.13-19.91-10.23,0-18.41,1.36-27.41,6.27l-6.27-13.91c9.82-5.04,24.54-8.32,37.91-8.32,27.41,0,43.9,12.68,43.9,36ZM173.16,239.25c-5.59-8.86-16.77-11.04-26.45-11.04-8.73,0-21.54,2.05-21.54,12s12.82,12.14,21.54,12.14c9.68,0,20.86-2.32,26.45-11.18v-1.91Z"/>
        <path class="cls-1" d="M298.33,188.26l-54.81,102.4h-21.54l17.86-31.91-38.18-70.49h22.23l26.72,50.86,25.91-50.86h21.82Z"/>
        <path class="cls-1" d="M310.33,263.39v-75.13h21.13l-.77,18.62c6.14-11.32,19.86-20.26,34.31-20.26v18.13c-16.36,0-29.04,6.41-33.54,19.63v39h-21.13Z"/>
        <path class="cls-1" d="M371.14,225.89c0-25.09,18.27-40.5,48-40.5s48,15.41,48,40.5-18.41,40.5-48,40.5-48-15.54-48-40.5ZM446.82,223.58c0-15.68-11.73-21.01-27.68-21.01s-27.54,8.79-27.54,24.47,11.73,22.16,27.54,22.16,27.68-10.08,27.68-25.62Z"/>
        <path class="cls-1" d="M526.72,266.39c-29.45,0-47.59-15.68-47.59-40.5s18.13-40.63,47.59-40.63c21.41,0,35.59,9.27,41.86,20.73l-19.5,7.64c-4.36-8.32-12.68-11.32-22.23-11.32-15.68,0-32.27,7.77-32.27,23.59s16.59,23.45,32.27,23.45c9.54,0,18.13-3.14,22.77-11.73l19.36,7.77c-6.27,11.73-20.59,21-42.27,21Z"/>
      </g>
      <path class="cls-1" d="M378.17,466.38c-27.86.77-55.26-3.35-81.42-12.23-25.28-8.58-48.75-21.38-69.76-38.03-20.85-16.52-38.6-36.29-52.75-58.76-14.45-22.95-24.82-52.52-30.55-78.98l18.35-.17c10.45,48.21,37.64,92.46,76.54,123.28,19.33,15.32,40.93,27.09,64.17,34.98,24.06,8.17,49.26,11.95,74.9,11.25,28.96-.8,56.89-7.24,83.02-19.15,25.24-11.51,47.75-27.6,66.91-47.85,19.16-20.24,33.99-43.61,44.09-69.45,10.45-26.74,15.35-54.99,14.55-83.95-.8-28.96-7.24-56.89-19.15-83.02-11.51-25.24-27.6-47.75-47.85-66.91-20.24-19.16-43.61-33.99-69.45-44.09-26.74-10.45-54.99-15.35-83.95-14.55-23.55.65-46.59,5.08-68.48,13.16-21.16,7.82-40.9,18.91-58.67,32.98-17.57,13.91-32.8,30.4-45.28,49.01-12.64,18.85-22.3,33.93-28.41,55.68l-17.82.46c6.65-23.66,16.99-46.05,30.73-66.54,13.55-20.22,30.11-38.13,49.2-53.25,19.31-15.29,40.77-27.35,63.79-35.85C314.68,5.61,339.73.8,365.32.09c31.47-.87,62.17,4.46,91.26,15.82,28.09,10.98,53.48,27.1,75.48,47.92,22,20.82,39.5,45.29,52,72.73,12.95,28.41,19.96,58.78,20.83,90.25s-4.46,62.17-15.82,91.26c-10.98,28.09-27.1,53.48-47.92,75.48-20.82,22-45.29,39.5-72.73,52-28.41,12.95-58.78,19.96-90.25,20.83Z"/>
    </g>
  </g>
</svg>