<?xml version="1.0" encoding="UTF-8"?>
<svg id="Layer_1" data-name="Layer 1" xmlns="http://www.w3.org/2000/svg" viewBox="0 0 1080 300">
  <defs>
    <style>
      .cls-1 {
        fill: #0051c2;
      }

      .cls-2 {
        fill: #191c26;
      }
    </style>
  </defs>
  <path class="cls-2" d="M696.65,180.55c0-45.36,33.03-73.21,86.77-73.21s86.77,27.86,86.77,73.21-33.28,73.21-86.77,73.21-86.77-28.1-86.77-73.21ZM833.47,176.38c0-28.35-21.2-37.98-50.04-37.98s-49.79,15.89-49.79,44.24,21.2,40.07,49.79,40.07,50.04-18.22,50.04-46.32Z"/>
  <g>
    <path class="cls-2" d="M63.87,226.16v71.49H25.66V112.52h38.21v21.94c11.09-15.04,31.31-27.12,59.16-27.12,43.14,0,73.21,28.6,73.21,72.97s-30.07,72.97-73.21,72.97c-27.86,0-48.07-12.08-59.16-27.12ZM66.2,161.32c-3.04,8.99-3.04,28.97,0,37.96,6.24,18.5,27.25,22.19,47.22,22.19,29.58,0,46.34-14.54,46.34-41.17s-16.76-41.17-46.34-41.17c-19.97,0-40.97,3.69-47.22,22.19Z"/>
    <path class="cls-2" d="M586.71,248.34V112.52h38.21l-1.39,33.66c11.09-20.46,35.9-36.62,62.03-36.62v32.79c-29.58,0-52.51,11.59-60.64,35.5v70.5h-38.21Z"/>
    <path class="cls-2" d="M977.92,253.77c-53.25,0-86.03-28.35-86.03-73.21s32.79-73.46,86.03-73.46c38.7,0,64.34,16.76,75.68,37.47l-35.25,13.8c-7.89-15.04-22.93-20.46-40.18-20.46-28.35,0-58.34,14.05-58.34,42.65s29.99,42.4,58.34,42.4c17.26,0,32.79-5.67,41.17-21.2l35,14.05c-11.34,21.2-37.22,37.96-76.42,37.96Z"/>
    <path class="cls-2" d="M375.95,172.42v50.04c0,9.86,1.73,17.99,6.16,25.88h-39.2c-2.96-4.93-4.93-11.09-4.93-16.02v-.25c-10.35,11.34-30.32,21.2-56.45,21.2-29.09,0-66.8-11.59-66.8-46.84s37.72-46.59,66.8-46.59c26.13,0,46.1,9.61,56.45,21.2v-8.87c0-25.14-16.52-35.99-49.06-35.99-18.49,0-33.28,2.47-49.55,11.34l-11.34-25.14c17.75-9.12,44.37-15.04,68.53-15.04,49.55,0,79.38,22.93,79.38,65.08ZM338.73,204.71c-10.11-16.02-30.32-19.97-47.82-19.97-15.78,0-38.95,3.7-38.95,21.69s23.17,21.94,38.95,21.94c17.5,0,37.72-4.19,47.82-20.21v-3.45Z"/>
    <path class="cls-2" d="M565.02,112.52l-99.1,185.13h-38.95l32.29-57.68-69.02-127.45h40.18l48.32,91.95,46.84-91.95h39.44Z"/>
  </g>
  <g>
    <path class="cls-1" d="M25.66,83.16V19.08h9.4l.28,10.71-1.13-.56c1.25-3.7,3.32-6.5,6.2-8.41,2.88-1.91,6.2-2.87,9.96-2.87,4.89,0,8.91,1.21,12.07,3.62,3.16,2.41,5.51,5.59,7.05,9.54,1.53,3.95,2.3,8.27,2.3,12.97s-.77,9.02-2.3,12.97c-1.54,3.95-3.88,7.13-7.05,9.54-3.16,2.41-7.19,3.62-12.07,3.62-2.51,0-4.86-.44-7.05-1.31-2.19-.88-4.06-2.11-5.59-3.71-1.54-1.6-2.62-3.49-3.24-5.68l1.13-1.13v24.8h-9.96ZM48.59,61.55c4.01,0,7.16-1.53,9.44-4.6,2.29-3.07,3.43-7.36,3.43-12.87s-1.14-9.8-3.43-12.87c-2.29-3.07-5.44-4.6-9.44-4.6-2.63,0-4.92.64-6.86,1.93-1.94,1.28-3.45,3.24-4.51,5.87-1.07,2.63-1.6,5.86-1.6,9.68s.52,7.05,1.55,9.68c1.03,2.63,2.54,4.59,4.51,5.87,1.97,1.28,4.28,1.93,6.91,1.93Z"/>
    <path class="cls-1" d="M102.42,70.19c-4.76,0-8.93-1.07-12.5-3.19-3.57-2.13-6.33-5.17-8.27-9.11-1.94-3.95-2.91-8.55-2.91-13.81s.97-9.93,2.91-13.81c1.94-3.88,4.7-6.91,8.27-9.07,3.57-2.16,7.74-3.24,12.5-3.24s8.93,1.08,12.5,3.24,6.33,5.18,8.27,9.07c1.94,3.88,2.91,8.49,2.91,13.81s-.97,9.87-2.91,13.81c-1.94,3.95-4.7,6.98-8.27,9.11-3.57,2.13-7.74,3.19-12.5,3.19ZM102.42,61.55c4.26,0,7.55-1.55,9.87-4.65,2.32-3.1,3.48-7.38,3.48-12.83s-1.16-9.72-3.48-12.83c-2.32-3.1-5.61-4.65-9.87-4.65s-7.47,1.55-9.82,4.65c-2.35,3.1-3.52,7.38-3.52,12.83s1.17,9.72,3.52,12.83,5.62,4.65,9.82,4.65Z"/>
    <path class="cls-1" d="M144.89,69.06l-15.22-49.98h10.43l10.71,39.09,10.99-39.09h9.4l10.99,39.09,10.8-39.09h10.43l-15.22,49.98h-11.18l-10.52-35.7-10.52,35.7h-11.09Z"/>
    <path class="cls-1" d="M230.58,70.19c-4.89,0-9.1-1.07-12.64-3.19-3.54-2.13-6.26-5.17-8.17-9.11-1.91-3.95-2.87-8.55-2.87-13.81s.95-9.85,2.87-13.76c1.91-3.91,4.62-6.95,8.13-9.11,3.51-2.16,7.64-3.24,12.4-3.24,4.51,0,8.49,1.05,11.93,3.15,3.45,2.1,6.12,5.12,8.03,9.07,1.91,3.95,2.87,8.71,2.87,14.28v2.54h-35.89c.25,4.89,1.55,8.55,3.9,10.99,2.35,2.44,5.53,3.66,9.54,3.66,2.94,0,5.39-.69,7.33-2.07,1.94-1.38,3.29-3.23,4.04-5.54l10.34.66c-1.31,4.64-3.9,8.38-7.75,11.23-3.85,2.85-8.53,4.27-14.05,4.27ZM217.24,39.47h25.37c-.32-4.45-1.58-7.74-3.8-9.87-2.23-2.13-5.06-3.2-8.5-3.2s-6.5,1.11-8.78,3.34c-2.29,2.22-3.71,5.47-4.28,9.72Z"/>
    <path class="cls-1" d="M263.18,69.06V19.08h9.11l.38,13.25-.85-.28c.69-4.51,2.08-7.8,4.18-9.87,2.1-2.07,4.93-3.1,8.5-3.1h4.79v8.93h-4.79c-2.51,0-4.6.41-6.29,1.22-1.69.82-2.96,2.07-3.81,3.76-.84,1.69-1.27,3.88-1.27,6.58v29.5h-9.96Z"/>
    <path class="cls-1" d="M317.02,70.19c-4.88,0-9.1-1.07-12.64-3.19-3.54-2.13-6.26-5.17-8.17-9.11-1.91-3.95-2.87-8.55-2.87-13.81s.95-9.85,2.87-13.76c1.91-3.91,4.62-6.95,8.13-9.11,3.51-2.16,7.64-3.24,12.4-3.24,4.51,0,8.49,1.05,11.93,3.15,3.45,2.1,6.12,5.12,8.03,9.07,1.91,3.95,2.87,8.71,2.87,14.28v2.54h-35.89c.25,4.89,1.55,8.55,3.9,10.99,2.35,2.44,5.53,3.66,9.54,3.66,2.94,0,5.38-.69,7.33-2.07,1.94-1.38,3.29-3.23,4.04-5.54l10.34.66c-1.31,4.64-3.9,8.38-7.75,11.23-3.85,2.85-8.54,4.27-14.05,4.27ZM303.68,39.47h25.37c-.32-4.45-1.58-7.74-3.81-9.87-2.22-2.13-5.06-3.2-8.5-3.2s-6.5,1.11-8.78,3.34c-2.29,2.22-3.71,5.47-4.27,9.72Z"/>
    <path class="cls-1" d="M367.38,70.19c-4.26,0-7.97-1.07-11.13-3.19-3.16-2.13-5.58-5.15-7.23-9.07-1.66-3.91-2.49-8.53-2.49-13.86s.84-9.94,2.54-13.86c1.69-3.91,4.1-6.94,7.23-9.07,3.13-2.13,6.83-3.2,11.09-3.2,3.45,0,6.51.72,9.21,2.16,2.69,1.44,4.73,3.45,6.11,6.01V2.36h9.96v66.71h-9.3l-.28-7.52c-1.38,2.69-3.46,4.81-6.25,6.34-2.79,1.53-5.93,2.3-9.44,2.3ZM370.01,61.55c2.69,0,4.98-.69,6.86-2.07,1.88-1.38,3.32-3.38,4.32-6.01,1-2.63,1.5-5.76,1.5-9.4s-.5-6.94-1.5-9.54c-1-2.6-2.44-4.57-4.32-5.92s-4.17-2.02-6.86-2.02c-4.01,0-7.21,1.55-9.58,4.65-2.38,3.1-3.57,7.38-3.57,12.83s1.19,9.65,3.57,12.78c2.38,3.13,5.58,4.7,9.58,4.7Z"/>
    <path class="cls-1" d="M454.47,70.19c-3.45,0-6.5-.77-9.16-2.3-2.66-1.53-4.72-3.65-6.15-6.34l-.28,7.52h-9.3V2.36h9.96v23.77c1.32-2.19,3.27-4.1,5.87-5.73,2.6-1.63,5.62-2.44,9.07-2.44,4.32,0,8.08,1.07,11.27,3.2,3.19,2.13,5.65,5.15,7.38,9.07,1.72,3.91,2.58,8.53,2.58,13.86s-.86,9.95-2.58,13.86c-1.72,3.91-4.18,6.94-7.38,9.07-3.19,2.13-6.95,3.19-11.27,3.19ZM452.88,61.55c3.82,0,6.86-1.55,9.11-4.65s3.38-7.38,3.38-12.83-1.13-9.72-3.38-12.83c-2.25-3.1-5.26-4.65-9.02-4.65-2.82,0-5.23.69-7.23,2.07-2.01,1.38-3.54,3.37-4.6,5.97-1.06,2.6-1.6,5.75-1.6,9.44s.53,6.67,1.6,9.3c1.07,2.63,2.6,4.65,4.6,6.06,2,1.41,4.38,2.11,7.14,2.11Z"/>
    <path class="cls-1" d="M487.08,83.16v-8.17h6.11c1.69,0,2.94-.25,3.76-.75.81-.5,1.44-1.35,1.88-2.54l1.6-4.13h-3.1l-18.04-48.48h10.52l13.72,39.27,13.06-39.27h10.62l-19.92,55.81c-1,2.88-2.49,4.98-4.46,6.29-1.97,1.32-4.72,1.97-8.22,1.97h-7.52Z"/>
  </g>
</svg>